#nulline	skip
#compilemode	1

#include <stdmac.msh>

.title		TITLE SCREEN
.artist		Maddy & NOEL
.fm		pico8
.partmax	6
.playcount	3
.lfotype	1

%L15
%R15
%C
%C
%C
%C

@p
@p
@p
@p *
@p *
@p *

t225 l8 @6v15 o7cv9cv7cv5cv3cc<v11gv9gv15a+v11a+v9a+v7a+v5a+a+v3a+a+v15fv11fv9ffv7ffv5ffv3ffv15d+v11d+v9d+v7d+v5d+v3d+
t225 l8 @1v13 o3cv7cv11cv7cv11cv7cv3crv13cv7cv11cv7cv11cv7cv3crv13fv7fv11fv7fv3frv13a+v7a+v11a+v7a+v11a+v7a+v11a+v7a+v3a+r
t225 l8 @7v5 o2d+>>>v3cr<<<d+>>>v5c<v3d+v5a+<<v3d+rd+>v5f>>>v3d+<<v5a+rf<<v3a+>>>>v5g<<v3c>v5a+<v3fr>>v3gv5g<<v3c>v5a+<v3f<v5f<v3d+rd+>>>v5c<v3f
*
*
*


t225 l8 @6v15 o6fv11fv9fv7fv5ffv3ffv11gv7gv15d+v11d+v9d+v7d+v5d+d+v15a+v9a+v7a+v5a+v3a+a+v15d+v11d+v9d+d+v7d+d+v5d+d+v3d+d+
t225 l8 @1v13 o2fv7fv11fv7fv3frv13gv7gv11gv7gv3grv13d+v7d+v3d+rv13cv7cv11cv7cv11cv7cv11cv7cv11cv7cv3crv13cv7cv3cr
t225 l8 @7v5 o2d+>>>v3cr<<<d+>>>v5c<v3d+v5a+<<v3d+rd+>v5f>>>v3d+<<v5a+rf<<v3a+>>>>v5g<<v3c>v5a+<v3fr>>v3gv5g<<v3c>v5a+<v3f<v5f<v3d+rd+>>>v5c<v3f
*
*
*

@j0
@j0
@j0
@j0
@j0
@j0

.end
